Coordinates
version=1
nRows=19
nColumns=36
inDegrees=yes

Units are S.I. units (second, meters, Newtons, ...)
If the header above contains a line with 'inDegrees', this indicates whether rotational values are in degrees (yes) or radians (no).

endheader
time	pelvis_tilt	pelvis_list	pelvis_rotation	pelvis_tx	pelvis_ty	pelvis_tz	hip_flexion_r	hip_adduction_r	hip_rotation_r	knee_angle_r	knee_angle_r_beta	ankle_angle_r	subtalar_angle_r	mtp_angle_r	hip_flexion_l	hip_adduction_l	hip_rotation_l	knee_angle_l	knee_angle_l_beta	ankle_angle_l	subtalar_angle_l	mtp_angle_l	lumbar_extension	lumbar_bending	lumbar_rotation	arm_flex_r	arm_add_r	arm_rot_r	elbow_flex_r	pro_sup_r	arm_flex_l	arm_add_l	arm_rot_l	elbow_flex_l	pro_sup_l
      1.87916670	    -20.75895975	      0.59917346	      4.11800759	      0.21211706	      0.65010363	     -0.03689548	     79.57477741	     -7.10014878	      7.29064176	     95.55713099	      1.66778656	     28.51485983	    -33.60763362	     -7.49999987	     76.94509497	      3.06947887	      7.55587944	     98.10257591	      1.71221295	     34.30416312	    -16.85547441	     -7.49999987	    -26.25739551	     -0.72541389	     -5.40567364	     96.20907682	    -34.84753391	     25.27953093	     59.93195536	     75.82323328	    114.99251661	    -24.27939490	     46.84488183	     50.05843971	     54.94320092
      1.88333330	    -20.92785347	      0.62783559	      3.98942805	      0.20853470	      0.65345273	     -0.04182967	     79.27809737	     -7.04877606	      7.24727677	     94.64846754	      1.65192739	     28.41336997	    -33.53547505	     -7.49999987	     76.67764215	      3.22034988	      7.53549454	     97.44778888	      1.70078476	     34.19679349	    -16.91294340	     -7.49999987	    -25.73776762	     -0.84869051	     -5.50077982	     96.43887861	    -34.94374501	     25.24742268	     59.86203567	     75.87962108	    115.25000581	    -24.23355761	     46.88624005	     50.15415876	     54.92340672
      1.88750000	    -20.78452401	      0.53837476	      3.66749155	      0.21733897	      0.66084748	     -0.04204189	     78.18390073	     -6.83795425	      7.10382751	     93.45891076	      1.63116571	     27.99990290	    -33.62613204	     -7.49999987	     75.39530293	      3.06003971	      7.66182025	     96.25100550	      1.67989695	     33.58858983	    -17.63120473	     -7.49999987	    -25.68412662	     -1.01041466	     -5.54260700	     96.33521597	    -35.16486820	     25.26432457	     59.64717309	     76.28979861	    115.68312996	    -24.34828504	     47.39391307	     50.59927450	     54.79538047
      1.89166670	    -20.96307078	      0.51769301	      3.49420302	      0.21407315	      0.66083836	     -0.03773308	     77.91468235	     -6.70968818	      6.88023676	     92.76047516	      1.61897571	     28.01140511	    -33.57357488	     -7.49999987	     75.22392119	      2.90176383	      7.64603032	     95.73388682	      1.67087153	     33.56016236	    -17.66299716	     -7.49999987	    -25.12165979	     -1.24607475	     -5.67078102	     96.57575353	    -35.20717199	     25.22685572	     59.68800276	     76.32822737	    116.04673235	    -24.37243988	     47.40281413	     50.60786610	     54.77988164
      1.89583330	    -20.59483814	      0.50124974	      3.07073858	      0.21810432	      0.67131526	     -0.04219506	     76.77887381	     -6.43639228	      6.86810018	     91.62180783	      1.59910221	     27.41430896	    -33.54795212	     -7.49999987	     73.97534557	      2.71946310	      7.57977005	     94.67373296	      1.65236836	     32.62340039	    -18.66705796	     -7.49999987	    -24.95930259	     -1.28839103	     -5.21547247	     96.72851996	    -35.15522376	     25.23493116	     59.41846476	     75.75862314	    115.90211931	    -24.58755160	     47.78135364	     50.42739717	     54.92222200
      1.90000000	    -20.58078972	      0.57607672	      2.79114783	      0.21853540	      0.67187444	     -0.04246796	     76.26993567	     -6.45749916	      6.87158561	     90.90315263	      1.58655931	     27.12661079	    -33.49050285	     -7.49999987	     73.20770569	      2.49005339	      7.44692943	     93.85722873	      1.63811767	     33.12315095	    -18.31529273	     -7.49999987	    -24.40011242	     -1.41370253	     -5.20920182	     97.06540344	    -34.98531964	     25.84132334	     59.05388544	     75.22671434	    116.02986908	    -25.12133490	     48.11912827	     50.42789872	     54.91909514
      1.90416670	    -20.59841040	      0.70520970	      2.68914485	      0.21841314	      0.67836623	     -0.04188107	     75.70412634	     -6.41096414	      6.99585083	     89.95976932	      1.57009417	     26.86076108	    -33.41552630	     -7.49999987	     72.59093353	      2.41978811	      7.17853319	     92.98363410	      1.62287057	     32.90856671	    -18.19900850	     -7.49999987	    -23.83178634	     -1.56548438	     -5.05792056	     96.94744365	    -35.15158002	     25.89209650	     58.90678633	     75.36255029	    115.58863374	    -25.50050162	     48.15605941	     50.37070790	     54.84213676
      1.90833330	    -20.63957601	      0.85247263	      2.56103654	      0.21928861	      0.68515671	     -0.04206156	     74.99725176	     -6.30204349	      7.12983199	     88.77457520	      1.54940863	     26.47553074	    -33.55339131	     -7.49999987	     71.94187853	      2.42808767	      6.82037924	     91.87804162	      1.60357434	     32.25440389	    -18.80569764	     -7.49999987	    -23.27800472	     -1.71429967	     -5.17363877	     96.65559550	    -35.45959026	     25.81677491	     58.49487810	     74.74813907	    114.71112821	    -26.20967972	     47.12486624	     51.29337810	     54.83912910
      1.91250000	    -20.72688941	      0.86796305	      2.11727781	      0.21972125	      0.69118265	     -0.04134768	     74.37829946	     -6.02399975	      6.94432185	     87.46323754	      1.52652147	     26.05942045	    -33.54396591	     -7.49999987	     71.22548915	      2.08577333	      6.63204166	     90.62547992	      1.58171301	     31.90990051	    -18.91981907	     -7.49999987	    -22.97872349	     -1.94087198	     -5.05459914	     96.93630300	    -35.51724212	     25.82949381	     58.46444437	     74.15038830	    114.84779185	    -26.91882741	     47.09699179	     51.62392478	     55.01431894
      1.91666670	    -20.64397529	      0.86612359	      1.78659784	      0.22490698	      0.69525363	     -0.03686024	     73.42519484	     -5.64516333	      6.76265501	     86.32598443	      1.50667266	     25.88127381	    -33.54960206	     -7.49999987	     70.08315334	      1.59031111	      6.70489436	     89.33168032	      1.55913195	     32.02222496	    -18.40173536	     -7.49999987	    -22.69448859	     -2.14710957	     -4.45172500	     96.70840037	    -35.79751215	     24.56965700	     59.15602666	     79.38521708	    114.99649638	    -27.09002883	     47.49553502	     51.87839995	     52.23913263
      1.92083330	    -20.74062209	      0.89896839	      1.51556463	      0.22112179	      0.70078088	     -0.03987758	     72.79349628	     -5.39147234	      6.71355547	     85.04387717	      1.48429567	     25.61473767	    -33.63294242	     -7.49999987	     69.54131393	      1.48267241	      6.55339475	     88.41674601	      1.54316333	     31.90056271	    -18.50721651	     -7.49999987	    -22.21195832	     -2.34043833	     -4.08585767	     96.69263126	    -36.03690628	     24.76192362	     59.09331610	     79.41652780	    115.07625493	    -27.36720904	     47.59082336	     52.16228406	     52.22766904
      1.92500000	    -20.76192472	      0.75643077	      1.40908619	      0.22652088	      0.70842413	     -0.03647561	     71.72022171	     -5.03360596	      6.56299526	     83.58173508	      1.45877647	     25.31663554	    -33.70061457	     -7.49999987	     68.54190269	      1.15885241	      6.83766284	     86.94977700	      1.51755989	     31.70713816	    -18.31721731	     -7.49999987	    -21.68071715	     -2.53383099	     -4.07847616	     95.75124505	    -36.44014572	     24.91464809	     59.02301132	     79.42058876	    114.91201528	    -28.06538808	     47.72308568	     52.46915490	     52.20467034
      1.92916670	    -21.04423207	      0.50676226	      1.35563742	      0.22703306	      0.71163081	     -0.03682232	     70.99885942	     -4.68796716	      6.29995426	     82.24041716	      1.43536606	     24.94262934	    -33.90008136	     -7.49999987	     68.05571114	      0.95473094	      6.89828565	     85.95805130	      1.50025101	     31.80144164	    -18.33315961	     -7.49999987	    -21.05450125	     -2.53389014	     -4.01171361	     95.49536601	    -36.99656282	     24.46871772	     60.36680175	     76.31170721	    114.42347378	    -29.42034407	     46.99693320	     54.82670479	     53.39081648
      1.93333330	    -21.09993999	      0.18541330	      1.31531627	      0.23220237	      0.72186153	     -0.03382707	     69.70049617	     -4.25695037	      6.02946413	     80.41510716	      1.40350839	     24.51940657	    -33.91262232	     -7.49999987	     66.95273821	      0.53680824	      7.34107664	     84.27122926	      1.47081042	     31.24527678	    -18.29127819	     -7.49999987	    -20.36999030	     -2.62341917	     -3.94295179	     94.84042677	    -37.28009234	     24.61165702	     60.40982942	     76.37021694	    113.88262214	    -29.99468977	     47.31837092	     55.10624465	     53.35076809
      1.93750000	    -20.86054637	     -0.28722460	      1.20998418	      0.23198719	      0.72534998	     -0.03425502	     68.32648047	     -3.96620462	      5.31921631	     78.91980630	      1.37741046	     23.99780225	    -33.99596918	     -7.49999987	     65.98941001	      0.05108602	      7.71218595	     83.28090492	      1.45352599	     30.84546488	    -18.57626977	     -7.49999987	    -20.29957345	     -2.15117711	     -3.70718148	     94.64669940	    -37.89787428	     23.99156697	     60.77810141	     74.38135555	    113.59487497	    -30.50295589	     46.57361616	     56.07729772	     54.02062125
      1.94166670	    -21.03676093	     -0.46507869	      1.25115217	      0.23267669	      0.72866481	     -0.03526200	     67.71159920	     -3.93888093	      5.03248137	     77.80521707	      1.35795721	     24.08620548	    -33.98214934	     -7.49999987	     65.71411145	     -0.15531726	      7.78490025	     82.43625389	      1.43878405	     30.57709986	    -18.78714776	     -7.49999987	    -19.41629977	     -1.97593871	     -3.38961195	     94.62632224	    -38.50059143	     25.20707127	     60.73765385	     73.00898000	    113.06179265	    -31.26787750	     46.44761102	     56.26591772	     54.31995654
      1.94583330	    -20.77963229	     -0.60098897	      1.24491059	      0.23289317	      0.73793887	     -0.03457983	     66.55631901	     -3.90599109	      4.76696835	     76.36288400	      1.33278375	     23.75768045	    -33.97224802	     -7.49999987	     64.83625795	     -0.31272812	      7.92592805	     81.34153625	      1.41967763	     29.95112468	    -18.91377516	     -7.49999987	    -19.39426912	     -1.78949941	     -3.30315444	     94.89053538	    -39.34363540	     25.72457331	     61.99607302	     73.87866345	    113.14078875	    -32.61535667	     46.87156900	     57.47754306	     53.79311407
      1.95000000	    -20.83602660	     -0.61371400	      0.96592558	      0.23741982	      0.74428801	     -0.03918795	     65.50296565	     -3.96105365	      4.62266242	     74.63880998	      1.30269298	     23.26661217	    -33.91240335	     -7.49999987	     64.14628779	     -0.38721561	      7.69168472	     80.22068086	      1.40011501	     29.64842523	    -18.51519760	     -7.49999987	    -18.64060813	     -1.82570426	     -3.20288847	     94.47257522	    -39.64053280	     25.82594499	     62.26328859	     74.00973079	    112.59830172	    -33.52275786	     47.10025495	     57.58912605	     53.70943135
      1.95416670	    -20.72964538	     -0.82869313	      0.98499001	      0.24231338	      0.75119217	     -0.03459347	     64.04585031	     -3.73704468	      4.31568671	     72.77193042	      1.27010979	     22.92438990	    -33.91540743	     -7.49999987	     62.97031231	     -0.69381781	      7.81275671	     78.71942033	      1.37391307	     29.12608990	    -18.26468215	     -7.49999987	    -18.52533127	     -1.63430101	     -3.55465454	     93.63586578	    -40.17014243	     25.26763309	     64.02071791	     74.38659044	    112.66938832	    -35.58623326	     47.55726690	     59.35147359	     53.46502494
